<svg height="480pt" viewBox="0 0 480 480" width="480pt" xmlns="http://www.w3.org/2000/svg" xmlns:xlink="http://www.w3.org/1999/xlink"><linearGradient id="a"><stop offset="0" stop-color="#006df0"/><stop offset="1" stop-color="#00e7f0"/></linearGradient><linearGradient id="b" gradientUnits="userSpaceOnUse" x1="240" x2="240" xlink:href="#a" y1="517.872" y2="-53.344"/><linearGradient id="c" gradientUnits="userSpaceOnUse" x1="192" x2="192" xlink:href="#a" y1="517.872" y2="-53.344"/><linearGradient id="d" gradientUnits="userSpaceOnUse" x1="288" x2="288" xlink:href="#a" y1="517.872" y2="-53.344"/><path d="m240 0c-132.546875 0-240 107.453125-240 240s107.453125 240 240 240 240-107.453125 240-240c-.148438-132.484375-107.515625-239.851562-240-240zm0 464c-123.710938 0-224-100.289062-224-224s100.289062-224 224-224 224 100.289062 224 224c-.140625 123.652344-100.347656 223.859375-224 224zm0 0" fill="url(#b)"/><path d="m216 136h-48c-4.417969 0-8 3.582031-8 8v192c0 4.417969 3.582031 8 8 8h48c4.417969 0 8-3.582031 8-8v-192c0-4.417969-3.582031-8-8-8zm-8 192h-32v-176h32zm0 0" fill="url(#c)"/><path d="m312 136h-48c-4.417969 0-8 3.582031-8 8v192c0 4.417969 3.582031 8 8 8h48c4.417969 0 8-3.582031 8-8v-192c0-4.417969-3.582031-8-8-8zm-8 192h-32v-176h32zm0 0" fill="url(#d)"/></svg>