<svg height="480pt" viewBox="-8 0 480 480" width="480pt" xmlns="http://www.w3.org/2000/svg" xmlns:xlink="http://www.w3.org/1999/xlink"><linearGradient id="a"><stop offset="0" stop-color="#006df0"/><stop offset="1" stop-color="#00e7f0"/></linearGradient><linearGradient id="b" gradientUnits="userSpaceOnUse" x1="40.040101" x2="40.040101" xlink:href="#a" y1="492.984" y2="-51.464"/><linearGradient id="c" gradientUnits="userSpaceOnUse" x1="136.040101" x2="136.040101" xlink:href="#a" y1="492.984" y2="-51.464"/><linearGradient id="d" gradientUnits="userSpaceOnUse" x1="232.040101" x2="232.040101" xlink:href="#a" y1="492.984" y2="-51.464"/><linearGradient id="e" gradientUnits="userSpaceOnUse" x1="328.040101" x2="328.040101" xlink:href="#a" y1="492.984" y2="-51.464"/><linearGradient id="f" gradientUnits="userSpaceOnUse" x1="424.040101" x2="424.040101" xlink:href="#a" y1="492.984" y2="-51.464"/><path d="m48.039062 240.800781v-232.800781c0-4.417969-3.582031-8-8-8-4.417968 0-8 3.582031-8 8v232.800781c-18.640624 3.785157-32.039062 20.175781-32.039062 39.199219s13.398438 35.414062 32.039062 39.199219v152.800781c0 4.417969 3.582032 8 8 8 4.417969 0 8-3.582031 8-8v-152.800781c18.644532-3.785157 32.042969-20.175781 32.042969-39.199219s-13.398437-35.414062-32.042969-39.199219zm-8 63.199219c-13.253906 0-24-10.746094-24-24s10.746094-24 24-24c13.257813 0 24 10.746094 24 24s-10.742187 24-24 24zm0 0" fill="url(#b)"/><path d="m144.039062 112.800781v-104.800781c0-4.417969-3.582031-8-8-8-4.417968 0-8 3.582031-8 8v104.800781c-18.640624 3.785157-32.039062 20.175781-32.039062 39.199219s13.398438 35.414062 32.039062 39.199219v280.800781c0 4.417969 3.582032 8 8 8 4.417969 0 8-3.582031 8-8v-280.800781c18.644532-3.785157 32.042969-20.175781 32.042969-39.199219s-13.398437-35.414062-32.042969-39.199219zm-8 63.199219c-13.253906 0-24-10.746094-24-24s10.746094-24 24-24c13.257813 0 24 10.746094 24 24s-10.742187 24-24 24zm0 0" fill="url(#c)"/><path d="m240.039062 288.800781v-280.800781c0-4.417969-3.582031-8-8-8-4.417968 0-8 3.582031-8 8v280.800781c-18.640624 3.785157-32.039062 20.175781-32.039062 39.199219s13.398438 35.414062 32.039062 39.199219v104.800781c0 4.417969 3.582032 8 8 8 4.417969 0 8-3.582031 8-8v-104.800781c18.644532-3.785157 32.042969-20.175781 32.042969-39.199219s-13.398437-35.414062-32.042969-39.199219zm-8 63.199219c-13.253906 0-24-10.746094-24-24s10.746094-24 24-24c13.257813 0 24 10.746094 24 24s-10.742187 24-24 24zm0 0" fill="url(#d)"/><path d="m336.039062 200.800781v-192.800781c0-4.417969-3.582031-8-8-8-4.417968 0-8 3.582031-8 8v192.800781c-18.640624 3.785157-32.039062 20.175781-32.039062 39.199219s13.398438 35.414062 32.039062 39.199219v192.800781c0 4.417969 3.582032 8 8 8 4.417969 0 8-3.582031 8-8v-192.800781c18.644532-3.785157 32.042969-20.175781 32.042969-39.199219s-13.398437-35.414062-32.042969-39.199219zm-8 63.199219c-13.253906 0-24-10.746094-24-24s10.746094-24 24-24c13.257813 0 24 10.746094 24 24s-10.742187 24-24 24zm0 0" fill="url(#e)"/><path d="m464.039062 120c-.023437-19-13.386718-35.371094-32-39.199219v-72.800781c0-4.417969-3.582031-8-8-8-4.417968 0-8 3.582031-8 8v72.800781c-18.640624 3.785157-32.039062 20.175781-32.039062 39.199219s13.398438 35.414062 32.039062 39.199219v312.800781c0 4.417969 3.582032 8 8 8 4.417969 0 8-3.582031 8-8v-312.800781c18.613282-3.828125 31.976563-20.199219 32-39.199219zm-40 24c-13.253906 0-24-10.746094-24-24s10.746094-24 24-24c13.257813 0 24 10.746094 24 24s-10.742187 24-24 24zm0 0" fill="url(#f)"/></svg>