<svg height="480pt" viewBox="0 0 480 480" width="480pt" xmlns="http://www.w3.org/2000/svg" xmlns:xlink="http://www.w3.org/1999/xlink"><linearGradient id="a" gradientUnits="userSpaceOnUse" x1="240" x2="240" y1="526.568" y2="-32.336"><stop offset="0" stop-color="#006df0"/><stop offset="1" stop-color="#00e7f0"/></linearGradient><g fill="url(#a)"><path d="m240 0c-132.546875 0-240 107.453125-240 240s107.453125 240 240 240 240-107.453125 240-240c-.148438-132.484375-107.515625-239.851562-240-240zm0 464c-123.710938 0-224-100.289062-224-224s100.289062-224 224-224 224 100.289062 224 224c-.140625 123.652344-100.347656 223.859375-224 224zm0 0"/><path d="m368 304h-24c-4.417969 0-8 3.582031-8 8v32h-192v-32c0-4.417969-3.582031-8-8-8h-24c-4.417969 0-8 3.582031-8 8v64c0 4.417969 3.582031 8 8 8h256c4.417969 0 8-3.582031 8-8v-64c0-4.417969-3.582031-8-8-8zm-8 64h-240v-48h8v32c0 4.417969 3.582031 8 8 8h208c4.417969 0 8-3.582031 8-8v-32h8zm0 0"/><path d="m233.753906 325c1.515625 1.898438 3.816406 3.003906 6.246094 3.003906s4.730469-1.105468 6.246094-3.003906l64-80c1.925781-2.402344 2.300781-5.691406.96875-8.464844-1.335938-2.773437-4.136719-4.535156-7.214844-4.535156h-24v-152c0-4.417969-3.582031-8-8-8h-64c-4.417969 0-8 3.582031-8 8v152h-24c-3.078125 0-5.878906 1.761719-7.214844 4.535156-1.332031 2.773438-.957031 6.0625.96875 8.464844zm-25.753906-77c4.417969 0 8-3.582031 8-8v-152h48v152c0 4.417969 3.582031 8 8 8h15.351562l-47.351562 59.199219-47.351562-59.199219zm0 0"/></g></svg>