<svg height="480pt" viewBox="-80 0 480 480" width="480pt" xmlns="http://www.w3.org/2000/svg" xmlns:xlink="http://www.w3.org/1999/xlink"><linearGradient id="a" gradientUnits="userSpaceOnUse" x1="160" x2="160" y1="487.344" y2="-40.88"><stop offset="0" stop-color="#006df0"/><stop offset="1" stop-color="#00e7f0"/></linearGradient><path d="m312 0h-304c-4.417969 0-8 3.582031-8 8v464c0 4.417969 3.582031 8 8 8h304c4.417969 0 8-3.582031 8-8v-464c0-4.417969-3.582031-8-8-8zm-8 136h-48v-48h48zm0 64h-48v-48h48zm0 64h-48v-48h48zm0 64h-48v-48h48zm-48 16h48v48h-48zm48-272h-48v-56h48zm-64 160h-160v-216h160zm-224 48h48v48h-48zm48-40v24h-48v-48h48zm-48-88h48v48h-48zm48-16h-48v-48h48zm-48 208h48v48h-48zm0-328h48v56h-48zm0 392h48v56h-48zm64-160h160v216h-160zm224 216h-48v-56h48zm0 0" fill="url(#a)"/></svg>