<svg height="480pt" viewBox="0 -40 480 480" width="480pt" xmlns="http://www.w3.org/2000/svg" xmlns:xlink="http://www.w3.org/1999/xlink"><linearGradient id="a"><stop offset="0" stop-color="#006df0"/><stop offset="1" stop-color="#00e7f0"/></linearGradient><linearGradient id="b" gradientUnits="userSpaceOnUse" x1="232" x2="232" xlink:href="#a" y1="443.496" y2="-58.24"/><linearGradient id="c" gradientUnits="userSpaceOnUse" x1="240" x2="240" xlink:href="#a" y1="443.496" y2="-58.24"/><path d="m176 264c17.671875 0 32-14.328125 32-32v-97.96875l96-27.421875v65.839844c-4.84375-2.878907-10.367188-4.417969-16-4.449219-17.671875 0-32 14.328125-32 32s14.328125 32 32 32 32-14.328125 32-32v-136c0-2.507812-1.179688-4.871094-3.183594-6.382812-2-1.507813-4.597656-1.992188-7.007812-1.304688l-112 32c-3.4375.976562-5.804688 4.117188-5.808594 7.6875v108.449219c-4.84375-2.878907-10.367188-4.417969-16-4.449219-17.671875 0-32 14.328125-32 32s14.328125 32 32 32zm112-48c-8.835938 0-16-7.164062-16-16s7.164062-16 16-16 16 7.164062 16 16-7.164062 16-16 16zm-80-113.96875 96-27.421875v15.359375l-96 27.421875zm-32 113.96875c8.835938 0 16 7.164062 16 16s-7.164062 16-16 16-16-7.164062-16-16 7.164062-16 16-16zm0 0" fill="url(#b)"/><g fill="url(#c)"><path d="m440 288v-256c0-4.417969-3.582031-8-8-8h-384c-4.417969 0-8 3.582031-8 8v256c0 4.417969 3.582031 8 8 8h384c4.417969 0 8-3.582031 8-8zm-16-8h-368v-240h368zm0 0"/><path d="m472 320h-8v-296c0-13.253906-10.746094-24-24-24h-400c-13.253906 0-24 10.746094-24 24v296h-8c-4.417969 0-8 3.582031-8 8v32c.0273438 22.082031 17.917969 39.972656 40 40h400c22.082031-.027344 39.972656-17.917969 40-40v-32c0-4.417969-3.582031-8-8-8zm-440-296c0-4.417969 3.582031-8 8-8h400c4.417969 0 8 3.582031 8 8v296h-130.945312c-5.230469.007812-10.316407 1.71875-14.488282 4.871094l-23.101562 17.527344c-1.386719 1.035156-3.070313 1.597656-4.800782 1.601562h-69.328124c-1.730469-.003906-3.414063-.566406-4.800782-1.601562l-23.457031-17.597657c-4.15625-3.109375-9.207031-4.792969-14.398437-4.800781h-130.679688zm432 336c0 13.253906-10.746094 24-24 24h-400c-13.253906 0-24-10.746094-24-24v-24h146.664062c1.730469.003906 3.414063.566406 4.800782 1.601562l23.457031 17.597657c4.15625 3.109375 9.207031 4.792969 14.398437 4.800781h69.289063c5.230469-.007812 10.320313-1.71875 14.496094-4.871094l23.125-17.527344c1.386719-1.035156 3.070312-1.597656 4.800781-1.601562h146.96875zm0 0"/></g></svg>