<svg height="480pt" viewBox="0 0 480 480" width="480pt" xmlns="http://www.w3.org/2000/svg" xmlns:xlink="http://www.w3.org/1999/xlink"><linearGradient id="a"><stop offset="0" stop-color="#006df0"/><stop offset="1" stop-color="#00e7f0"/></linearGradient><linearGradient id="b" gradientUnits="userSpaceOnUse" x1="240" x2="240" xlink:href="#a" y1="480" y2="-30.68"/><linearGradient id="c" gradientUnits="userSpaceOnUse" x1="240" x2="240" xlink:href="#a" y1="479.648" y2="-31.032"/><linearGradient id="d" gradientUnits="userSpaceOnUse" x1="252" x2="252" xlink:href="#a" y1="479.648" y2="-31.032"/><linearGradient id="e" gradientUnits="userSpaceOnUse" x1="412" x2="412" xlink:href="#a" y1="479.648" y2="-31.032"/><linearGradient id="f" gradientUnits="userSpaceOnUse" x1="360" x2="360" xlink:href="#a" y1="479.648" y2="-31.032"/><linearGradient id="g" gradientUnits="userSpaceOnUse" x1="68" x2="68" xlink:href="#a" y1="479.648" y2="-31.032"/><linearGradient id="h" gradientUnits="userSpaceOnUse" x1="120" x2="120" xlink:href="#a" y1="479.648" y2="-31.032"/><linearGradient id="i" gradientUnits="userSpaceOnUse" x1="224" x2="224" xlink:href="#a" y1="479.648" y2="-31.032"/><linearGradient id="j" gradientUnits="userSpaceOnUse" x1="256" x2="256" xlink:href="#a" y1="479.648" y2="-31.032"/><path d="m240 0c-132.546875 0-240 107.453125-240 240s107.453125 240 240 240 240-107.453125 240-240c-.148438-132.484375-107.515625-239.851562-240-240zm0 464c-123.710938 0-224-100.289062-224-224s100.289062-224 224-224 224 100.289062 224 224c-.140625 123.652344-100.347656 223.859375-224 224zm0 0" fill="url(#b)"/><path d="m240 144c-53.019531 0-96 42.980469-96 96s42.980469 96 96 96 96-42.980469 96-96c-.058594-52.996094-43.003906-95.941406-96-96zm0 176c-44.183594 0-80-35.816406-80-80s35.816406-80 80-80 80 35.816406 80 80c-.046875 44.164062-35.835938 79.953125-80 80zm0 0" fill="url(#c)"/><path d="m220.335938 127.121094c1.132812.578125 2.390624.878906 3.664062.878906 1.667969.003906 3.296875-.519531 4.648438-1.496094l56-40c2.097656-1.503906 3.339843-3.925781 3.339843-6.503906s-1.242187-5-3.339843-6.503906l-56-40c-2.4375-1.738282-5.644532-1.972656-8.308594-.601563-2.660156 1.367188-4.335938 4.109375-4.339844 7.105469v80c-.003906 3 1.671875 5.746094 4.335938 7.121094zm11.664062-71.578125 34.230469 24.457031-34.230469 24.457031zm0 0" fill="url(#d)"/><path d="m444.648438 233.496094-56-40c-2.4375-1.738282-5.644532-1.972656-8.308594-.601563-2.660156 1.367188-4.335938 4.109375-4.339844 7.105469v80c0 4.417969 3.582031 8 8 8 1.667969.003906 3.296875-.519531 4.648438-1.496094l56-40c2.097656-1.503906 3.339843-3.925781 3.339843-6.503906s-1.242187-5-3.339843-6.503906zm-52.648438 30.960937v-48.914062l34.230469 24.457031zm0 0" fill="url(#e)"/><path d="m360 192c-4.417969 0-8 3.582031-8 8v80c0 4.417969 3.582031 8 8 8s8-3.582031 8-8v-80c0-4.417969-3.582031-8-8-8zm0 0" fill="url(#f)"/><path d="m99.664062 192.878906c-2.667968-1.367187-5.875-1.128906-8.3125.617188l-56 40c-2.097656 1.503906-3.339843 3.925781-3.339843 6.503906s1.242187 5 3.339843 6.503906l56 40c1.351563.976563 2.980469 1.5 4.648438 1.496094 1.273438-.003906 2.527344-.304688 3.664062-.878906 2.664063-1.375 4.339844-4.121094 4.335938-7.121094v-80c.003906-3-1.671875-5.746094-4.335938-7.121094zm-11.664062 71.578125-34.230469-24.457031 34.230469-24.457031zm0 0" fill="url(#g)"/><path d="m120 192c-4.417969 0-8 3.582031-8 8v80c0 4.417969 3.582031 8 8 8s8-3.582031 8-8v-80c0-4.417969-3.582031-8-8-8zm0 0" fill="url(#h)"/><path d="m224 360c-4.417969 0-8 3.582031-8 8v64c0 4.417969 3.582031 8 8 8s8-3.582031 8-8v-64c0-4.417969-3.582031-8-8-8zm0 0" fill="url(#i)"/><path d="m256 360c-4.417969 0-8 3.582031-8 8v64c0 4.417969 3.582031 8 8 8s8-3.582031 8-8v-64c0-4.417969-3.582031-8-8-8zm0 0" fill="url(#j)"/></svg>