<svg height="480pt" viewBox="-64 0 480 480" width="480pt" xmlns="http://www.w3.org/2000/svg" xmlns:xlink="http://www.w3.org/1999/xlink"><linearGradient id="a"><stop offset="0" stop-color="#006df0"/><stop offset="1" stop-color="#00e7f0"/></linearGradient><linearGradient id="b" gradientUnits="userSpaceOnUse" x1="176.072" x2="176.072" xlink:href="#a" y1="513.224" y2="-55.36"/><linearGradient id="c" gradientUnits="userSpaceOnUse" x1="168.072" x2="168.072" xlink:href="#a" y1="513.224" y2="-55.36"/><path d="m344.070312 0h-240c-.148437 0-.292968.078125-.445312.0898438-.734375.0390622-1.460938.1835942-2.152344.4296872-.238281.070313-.46875.152344-.695312.25-.890625.382813-1.703125.925781-2.402344 1.597657l-96 96c-.671875.679687-1.210938 1.472656-1.597656 2.34375-.113282.25-.175782.496093-.265625.753906-.230469.664062-.367188 1.355468-.40625 2.054687 0 .175781-.105469.328125-.105469.503907v367.976562c0 4.417969 3.582031 8 8 8h336.070312c4.421876 0 8-3.582031 8-8v-464c0-4.417969-3.578124-8-8-8zm-248 27.3125v68.6875h-68.6875zm240 436.6875h-320v-352h88c4.421876 0 8-3.582031 8-8v-88h224zm0 0" fill="url(#b)"/><path d="m128.070312 300.449219c-4.839843-2.878907-10.363281-4.417969-16-4.449219-17.671874 0-32 14.328125-32 32s14.328126 32 32 32c17.675782 0 32-14.328125 32-32v-97.960938l96-27.429687v65.839844c-4.839843-2.878907-10.363281-4.417969-16-4.449219-17.671874 0-32 14.328125-32 32s14.328126 32 32 32c17.675782 0 32-14.328125 32-32v-136c.003907-2.511719-1.175781-4.878906-3.179687-6.390625s-4.605469-1.996094-7.019531-1.304687l-112 32c-3.433594.980468-5.800782 4.121093-5.800782 7.695312zm-16 43.550781c-8.835937 0-16-7.164062-16-16s7.164063-16 16-16c8.839844 0 16 7.164062 16 16s-7.160156 16-16 16zm112-32c-8.835937 0-16-7.164062-16-16s7.164063-16 16-16c8.839844 0 16 7.164062 16 16s-7.160156 16-16 16zm-80-113.96875 96-27.421875v15.359375l-96 27.421875zm0 0" fill="url(#c)"/></svg>