<svg height="480pt" viewBox="-76 0 480 480" width="480pt" xmlns="http://www.w3.org/2000/svg" xmlns:xlink="http://www.w3.org/1999/xlink"><linearGradient id="a"><stop offset="0" stop-color="#006df0"/><stop offset="1" stop-color="#00e7f0"/></linearGradient><linearGradient id="b" gradientUnits="userSpaceOnUse" x1="144" x2="144" xlink:href="#a" y1="468.232" y2="-108.888"/><linearGradient id="c" gradientUnits="userSpaceOnUse" x1="164" x2="164" xlink:href="#a" y1="468.232" y2="-108.888"/><path d="m221.808594 136.3125-112 32c-3.4375.976562-5.804688 4.117188-5.808594 7.6875v108.449219c-4.84375-2.878907-10.367188-4.417969-16-4.449219-17.671875 0-32 14.328125-32 32s14.328125 32 32 32 32-14.328125 32-32v-97.96875l96-27.421875v65.839844c-4.84375-2.878907-10.367188-4.417969-16-4.449219-17.671875 0-32 14.328125-32 32s14.328125 32 32 32 32-14.328125 32-32v-136c0-2.507812-1.179688-4.871094-3.183594-6.382812-2-1.507813-4.597656-1.992188-7.007812-1.304688zm-133.808594 191.6875c-8.835938 0-16-7.164062-16-16s7.164062-16 16-16 16 7.164062 16 16-7.164062 16-16 16zm32-130.609375v-15.359375l96-27.421875v15.359375zm80 98.609375c-8.835938 0-16-7.164062-16-16s7.164062-16 16-16 16 7.164062 16 16-7.164062 16-16 16zm0 0" fill="url(#b)"/><path d="m312 224c8.835938 0 16-7.164062 16-16v-32c0-8.835938-7.164062-16-16-16h-8v-32c-.027344-22.082031-17.917969-39.972656-40-40h-8v-80c0-4.417969-3.582031-8-8-8h-192c-4.417969 0-8 3.582031-8 8v80h-8c-22.082031.027344-39.9726562 17.917969-40 40v224c.0273438 22.082031 17.917969 39.972656 40 40h8v80c0 4.417969 3.582031 8 8 8h192c4.417969 0 8-3.582031 8-8v-80h8c22.082031-.027344 39.972656-17.917969 40-40v-32h8c8.835938 0 16-7.164062 16-16v-32c0-8.835938-7.164062-16-16-16h-8v-32zm0-48v32h-8v-32zm-248-160h176v72h-176zm176 448h-176v-72h176zm48-112c0 13.253906-10.746094 24-24 24h-224c-13.253906 0-24-10.746094-24-24v-224c0-13.253906 10.746094-24 24-24h224c13.253906 0 24 10.746094 24 24zm24-80v32h-8v-32zm0 0" fill="url(#c)"/></svg>