<svg height="480pt" viewBox="0 -63 480 479" width="480pt" xmlns="http://www.w3.org/2000/svg" xmlns:xlink="http://www.w3.org/1999/xlink"><linearGradient id="a"><stop offset="0" stop-color="#006df0"/><stop offset="1" stop-color="#00e7f0"/></linearGradient><linearGradient id="b" gradientUnits="userSpaceOnUse" x1="112" x2="112" xlink:href="#a" y1="376.572" y2="-76.452"/><linearGradient id="c" gradientUnits="userSpaceOnUse" x1="368" x2="368" xlink:href="#a" y1="376.572" y2="-76.452"/><g fill="url(#b)"><path d="m216 .5h-208c-4.417969 0-8 3.582031-8 8v336c0 4.417969 3.582031 8 8 8h208c4.417969 0 8-3.582031 8-8v-336c0-4.417969-3.582031-8-8-8zm-8 336h-192v-320h192zm0 0"/><path d="m112 304.5c39.765625 0 72-32.234375 72-72s-32.234375-72-72-72-72 32.234375-72 72c.042969 39.746094 32.253906 71.957031 72 72zm0-128c30.929688 0 56 25.070312 56 56s-25.070312 56-56 56-56-25.070312-56-56c.039062-30.910156 25.089844-55.960938 56-56zm0 0"/><path d="m112 272.5c22.089844 0 40-17.910156 40-40s-17.910156-40-40-40-40 17.910156-40 40c.027344 22.082031 17.917969 39.972656 40 40zm0-64c13.253906 0 24 10.746094 24 24s-10.746094 24-24 24-24-10.746094-24-24 10.746094-24 24-24zm0 0"/><path d="m112 128.5c22.089844 0 40-17.910156 40-40s-17.910156-40-40-40-40 17.910156-40 40c.027344 22.082031 17.917969 39.972656 40 40zm0-64c13.253906 0 24 10.746094 24 24s-10.746094 24-24 24-24-10.746094-24-24 10.746094-24 24-24zm0 0"/></g><path d="m472 .5h-208c-4.417969 0-8 3.582031-8 8v336c0 4.417969 3.582031 8 8 8h208c4.417969 0 8-3.582031 8-8v-336c0-4.417969-3.582031-8-8-8zm-8 336h-192v-320h192zm0 0" fill="url(#c)"/><path d="m368 304.5c39.765625 0 72-32.234375 72-72s-32.234375-72-72-72-72 32.234375-72 72c.042969 39.746094 32.253906 71.957031 72 72zm0-128c30.929688 0 56 25.070312 56 56s-25.070312 56-56 56-56-25.070312-56-56c.039062-30.910156 25.089844-55.960938 56-56zm0 0" fill="url(#c)"/><path d="m368 272.5c22.089844 0 40-17.910156 40-40s-17.910156-40-40-40-40 17.910156-40 40c.027344 22.082031 17.917969 39.972656 40 40zm0-64c13.253906 0 24 10.746094 24 24s-10.746094 24-24 24-24-10.746094-24-24 10.746094-24 24-24zm0 0" fill="url(#c)"/><path d="m368 128.5c22.089844 0 40-17.910156 40-40s-17.910156-40-40-40-40 17.910156-40 40c.027344 22.082031 17.917969 39.972656 40 40zm0-64c13.253906 0 24 10.746094 24 24s-10.746094 24-24 24-24-10.746094-24-24 10.746094-24 24-24zm0 0" fill="url(#c)"/></svg>