<svg height="480pt" viewBox="0 -36 480.00003 480" width="480pt" xmlns="http://www.w3.org/2000/svg" xmlns:xlink="http://www.w3.org/1999/xlink"><linearGradient id="a" gradientUnits="userSpaceOnUse" x1="240.000025" x2="240.000025" y1="439.324132" y2="-62.219868"><stop offset="0" stop-color="#006df0"/><stop offset="1" stop-color="#00e7f0"/></linearGradient><g fill="url(#a)"><path d="m477.023438 1.796875c-1.878907-1.519531-4.347657-2.109375-6.710938-1.601563l-1.769531.386719c-150.730469 31.308594-306.285157 31.308594-457.015625 0l-1.839844-.402343c-2.367188-.511719-4.835938.078124-6.71875 1.601562s-2.9765625 3.816406-2.96875 6.238281v320c0 2.417969 1.09375 4.707031 2.976562 6.222657 1.882813 1.511718 4.347657 2.101562 6.710938 1.601562l1.769531-.382812c46.390625-9.511719 93.328125-16.132813 140.542969-19.824219v28.382812h-32c-3.03125 0-5.804688 1.710938-7.160156 4.425781l-24 48c-1.238282 2.480469-1.105469 5.425782.351562 7.78125 1.460938 2.359376 4.035156 3.792969 6.808594 3.792969h280c2.78125.015625 5.367188-1.414062 6.835938-3.773437 1.46875-2.363282 1.605468-5.316406.363281-7.800782l-24-48c-1.359375-2.726562-4.152344-4.441406-7.199219-4.425781h-32v-28.925781c49.886719 3.488281 99.488281 10.285156 148.472656 20.351562l1.839844.398438c.554688.113281 1.121094.171875 1.6875.175781 4.417969 0 8-3.582031 8-8v-320c0-2.417969-1.09375-4.703125-2.976562-6.222656zm-173.023438 366.222656h-8v-54.449219c2.667969.128907 5.332031.273438 8 .433594zm-24-24h-88v-30.847656c29.601562-1.230469 59.136719-1.335937 88-.289063zm-104 24h-8v-53.597656c2.664062-.179687 5.335938-.328125 8-.480469zm171.054688-8 16 32h-254.109376l16-32h27.054688v16c0 4.417969 3.582031 8 8 8h24c4.417969 0 8-3.582031 8-8v-16h88v16c0 4.417969 3.582031 8 8 8h24c4.417969 0 8-3.582031 8-8v-16zm116.945312-41.816406c-49.988281-9.945313-100.582031-16.554687-151.449219-19.78125-8.070312-.5625-16.152343-.96875-24.199219-1.289063-34.222656-1.496093-69.457031-1.394531-104.757812.320313-8.050781.410156-16.101562.894531-24.160156 1.453125-48.167969 3.453125-96.070313 9.898438-143.433594 19.304688v-300.375c147.859375 29.65625 300.140625 29.65625 448 0zm0 0"/><path d="m26.871094 31.019531c-1.820313 1.519531-2.871094 3.773438-2.871094 6.144531v261.710938c0 4.417969 3.582031 8 8 8 .480469.003906.960938-.035156 1.433594-.117188 41.5-7.527343 83.375-12.808593 125.445312-15.816406 8.109375-.570312 16.222656-1.058594 24.34375-1.457031 35.394532-1.726563 70.953125-1.847656 105.417969-.335937 8.152344.335937 16.304687.734374 24.367187 1.304687 44.8125 2.84375 89.417969 8.285156 133.601563 16.296875 2.328125.410156 4.71875-.230469 6.53125-1.75 1.8125-1.523438 2.859375-3.765625 2.859375-6.132812v-261.695313c0-2.371094-1.050781-4.621094-2.875-6.144531-1.820312-1.519532-4.222656-2.152344-6.558594-1.726563-136.597656 24.742188-276.535156 24.742188-413.132812 0-2.335938-.4375-4.742188.191407-6.5625 1.71875zm13.128906 15.6875c132.351562 22.863281 267.648438 22.863281 400 0v242.625c-41.679688-7.199219-83.714844-12.15625-125.929688-14.847656-8.167968-.566406-16.46875-.984375-24.757812-1.320313-34.886719-1.527343-70.96875-1.40625-106.878906.335938-8.265625.417969-16.472656.902344-24.691406 1.488281-39.285157 2.800781-78.855469 7.617188-117.742188 14.351563zm0 0"/></g></svg>