<svg height="480pt" viewBox="0 0 480 480" width="480pt" xmlns="http://www.w3.org/2000/svg" xmlns:xlink="http://www.w3.org/1999/xlink"><linearGradient id="a" gradientUnits="userSpaceOnUse" x1="240" x2="240" y1="487.68" y2="-23.632"><stop offset="0" stop-color="#006df0"/><stop offset="1" stop-color="#00e7f0"/></linearGradient><g fill="url(#a)"><path d="m440 48h-192v-8c-.027344-22.082031-17.917969-39.9726562-40-40h-168c-22.082031.0273438-39.9726562 17.917969-40 40v400c.0273438 22.082031 17.917969 39.972656 40 40h400c22.082031-.027344 39.972656-17.917969 40-40v-352c-.027344-22.082031-17.917969-39.972656-40-40zm24 392c0 13.253906-10.746094 24-24 24h-400c-13.253906 0-24-10.746094-24-24v-272c.027344-22.082031 17.917969-39.972656 40-40h368c22.082031.027344 39.972656 17.917969 40 40zm-2.167969-313.167969c-.6875-.632812-1.34375-1.273437-2.054687-1.863281-.714844-.59375-1.402344-1.074219-2.097656-1.601562-.695313-.527344-1.464844-1.144532-2.230469-1.671876-.769531-.527343-1.511719-.933593-2.273438-1.398437s-1.550781-.992187-2.398437-1.441406-1.601563-.800781-2.464844-1.207031c-.863281-.410157-1.601562-.800782-2.449219-1.183594-.847656-.386719-1.816406-.679688-2.726562-1.007813-.914063-.328125-1.601563-.640625-2.402344-.898437-1.007813-.320313-2.046875-.542969-3.070313-.796875-.800781-.195313-1.535156-.433594-2.320312-.59375-1.175781-.246094-2.398438-.390625-3.601562-.558594-.664063-.097656-1.308594-.234375-1.988282-.304687-1.914062-.199219-3.832031-.300782-5.753906-.304688h-368c-1.921875 0-3.839844.101562-5.753906.296875-.679688.070313-1.324219.207031-1.988282.304687-1.210937.167969-2.402343.308594-3.601562.558594-.800781.160156-1.542969.398438-2.320312.59375-1.023438.261719-2.0625.484375-3.070313.796875-.800781.257813-1.601563.601563-2.441406.898438-.839844.292969-1.839844.628906-2.726563 1.007812-.890625.375-1.601562.800781-2.449218 1.183594-.847657.382813-1.664063.800781-2.464844 1.207031-.800782.410156-1.597656.953125-2.359375 1.441406-.761719.488282-1.535157.902344-2.273438 1.398438-.734375.496094-1.488281 1.113281-2.230469 1.671875-.746093.5625-1.425781 1.03125-2.097656 1.601563-.671875.566406-1.367187 1.230468-2.054687 1.863281-.6875.632812-1.3125 1.167969-1.9375 1.792969-.070313.078124-.160157.144531-.230469.214843v-88.832031c0-13.253906 10.746094-24 24-24h168c13.253906 0 24 10.746094 24 24v16c0 4.417969 3.582031 8 8 8h200c13.253906 0 24 10.746094 24 24v40.839844c-.070312-.070313-.160156-.136719-.230469-.214844-.625-.625-1.289062-1.199219-1.9375-1.792969zm0 0"/><path d="m336 168h-192c-4.417969 0-8 3.582031-8 8v240c0 4.417969 3.582031 8 8 8h192c4.417969 0 8-3.582031 8-8v-240c0-4.417969-3.582031-8-8-8zm-8 96h-32v-32h32zm0 48h-32v-32h32zm-32 16h32v32h-32zm32-112h-32v-32h32zm-48 72h-80v-104h80zm-96 8v16h-32v-32h32zm0-32h-32v-32h32zm-32 64h32v32h-32zm0-144h32v32h-32zm0 192h32v32h-32zm48-72h80v104h-80zm128 104h-32v-32h32zm0 0"/></g></svg>