<svg height="480pt" viewBox="0 -36 480 480" width="480pt" xmlns="http://www.w3.org/2000/svg" xmlns:xlink="http://www.w3.org/1999/xlink"><linearGradient id="a"><stop offset="0" stop-color="#006df0"/><stop offset="1" stop-color="#00e7f0"/></linearGradient><linearGradient id="b" gradientUnits="userSpaceOnUse" x1="240" x2="240" xlink:href="#a" y1="451.288234" y2="-293.655766"/><linearGradient id="c" gradientUnits="userSpaceOnUse" x1="72" x2="72" xlink:href="#a" y1="451.288234" y2="-293.655766"/><linearGradient id="d" gradientUnits="userSpaceOnUse" x1="184" x2="184" xlink:href="#a" y1="451.288234" y2="-293.655766"/><linearGradient id="e" gradientUnits="userSpaceOnUse" x1="296" x2="296" xlink:href="#a" y1="451.288234" y2="-293.655766"/><linearGradient id="f" gradientUnits="userSpaceOnUse" x1="408" x2="408" xlink:href="#a" y1="451.288234" y2="-293.655766"/><path d="m472 352h-464c-4.417969 0-8 3.582031-8 8v40c0 4.417969 3.582031 8 8 8h464c4.417969 0 8-3.582031 8-8v-40c0-4.417969-3.582031-8-8-8zm-8 40h-448v-24h448zm0 0" fill="url(#b)"/><path d="m48 336h48c9.484375.042969 18.097656-5.53125 21.945312-14.199219 3.847657-8.667969 2.207032-18.792969-4.183593-25.800781 8.320312-9.042969 8.320312-22.957031 0-32 8.320312-9.042969 8.320312-22.957031 0-32 8.320312-9.042969 8.320312-22.957031 0-32 6.390625-7.007812 8.03125-17.132812 4.183593-25.800781-3.847656-8.667969-12.460937-14.242188-21.945312-14.199219h-48c-9.484375-.042969-18.097656 5.53125-21.945312 14.199219-3.847657 8.667969-2.207032 18.792969 4.183593 25.800781-8.320312 9.042969-8.320312 22.957031 0 32-8.320312 9.042969-8.320312 22.957031 0 32-8.320312 9.042969-8.320312 22.957031 0 32-6.390625 7.007812-8.03125 17.132812-4.183593 25.800781 3.847656 8.667969 12.460937 14.242188 21.945312 14.199219zm48-16h-48c-4.417969 0-8-3.582031-8-8s3.582031-8 8-8h48c4.417969 0 8 3.582031 8 8s-3.582031 8-8 8zm-56-40c0-4.417969 3.582031-8 8-8h48c4.417969 0 8 3.582031 8 8s-3.582031 8-8 8h-48c-4.417969 0-8-3.582031-8-8zm0-32c0-4.417969 3.582031-8 8-8h48c4.417969 0 8 3.582031 8 8s-3.582031 8-8 8h-48c-4.417969 0-8-3.582031-8-8zm0-32c0-4.417969 3.582031-8 8-8h48c4.417969 0 8 3.582031 8 8s-3.582031 8-8 8h-48c-4.417969 0-8-3.582031-8-8zm8-40h48c4.417969 0 8 3.582031 8 8s-3.582031 8-8 8h-48c-4.417969 0-8-3.582031-8-8s3.582031-8 8-8zm0 0" fill="url(#c)"/><path d="m160 336h48c9.484375.042969 18.097656-5.53125 21.945312-14.199219 3.847657-8.667969 2.207032-18.792969-4.183593-25.800781 6.390625-7.007812 8.03125-17.132812 4.183593-25.800781-3.847656-8.667969-12.460937-14.242188-21.945312-14.199219h-48c-9.484375-.042969-18.097656 5.53125-21.945312 14.199219-3.847657 8.667969-2.207032 18.792969 4.183593 25.800781-6.390625 7.007812-8.03125 17.132812-4.183593 25.800781 3.847656 8.667969 12.460937 14.242188 21.945312 14.199219zm48-16h-48c-4.417969 0-8-3.582031-8-8s3.582031-8 8-8h48c4.417969 0 8 3.582031 8 8s-3.582031 8-8 8zm-48-48h48c4.417969 0 8 3.582031 8 8s-3.582031 8-8 8h-48c-4.417969 0-8-3.582031-8-8s3.582031-8 8-8zm0 0" fill="url(#d)"/><path d="m272 336h48c9.484375.042969 18.097656-5.53125 21.945312-14.199219 3.847657-8.667969 2.207032-18.792969-4.183593-25.800781 8.320312-9.042969 8.320312-22.957031 0-32 8.320312-9.042969 8.320312-22.957031 0-32 8.320312-9.042969 8.320312-22.957031 0-32 8.320312-9.042969 8.320312-22.957031 0-32 8.320312-9.042969 8.320312-22.957031 0-32 6.390625-7.007812 8.03125-17.132812 4.183593-25.800781-3.847656-8.667969-12.460937-14.242188-21.945312-14.199219h-48c-9.484375-.042969-18.097656 5.53125-21.945312 14.199219-3.847657 8.667969-2.207032 18.792969 4.183593 25.800781-8.320312 9.042969-8.320312 22.957031 0 32-8.320312 9.042969-8.320312 22.957031 0 32-8.320312 9.042969-8.320312 22.957031 0 32-8.320312 9.042969-8.320312 22.957031 0 32-8.320312 9.042969-8.320312 22.957031 0 32-6.390625 7.007812-8.03125 17.132812-4.183593 25.800781 3.847656 8.667969 12.460937 14.242188 21.945312 14.199219zm48-16h-48c-4.417969 0-8-3.582031-8-8s3.582031-8 8-8h48c4.417969 0 8 3.582031 8 8s-3.582031 8-8 8zm-56-40c0-4.417969 3.582031-8 8-8h48c4.417969 0 8 3.582031 8 8s-3.582031 8-8 8h-48c-4.417969 0-8-3.582031-8-8zm0-32c0-4.417969 3.582031-8 8-8h48c4.417969 0 8 3.582031 8 8s-3.582031 8-8 8h-48c-4.417969 0-8-3.582031-8-8zm0-32c0-4.417969 3.582031-8 8-8h48c4.417969 0 8 3.582031 8 8s-3.582031 8-8 8h-48c-4.417969 0-8-3.582031-8-8zm0-32c0-4.417969 3.582031-8 8-8h48c4.417969 0 8 3.582031 8 8s-3.582031 8-8 8h-48c-4.417969 0-8-3.582031-8-8zm0-32c0-4.417969 3.582031-8 8-8h48c4.417969 0 8 3.582031 8 8s-3.582031 8-8 8h-48c-4.417969 0-8-3.582031-8-8zm8-40h48c4.417969 0 8 3.582031 8 8s-3.582031 8-8 8h-48c-4.417969 0-8-3.582031-8-8s3.582031-8 8-8zm0 0" fill="url(#e)"/><path d="m384 336h48c9.484375.042969 18.097656-5.53125 21.945312-14.199219 3.847657-8.667969 2.207032-18.792969-4.183593-25.800781 8.320312-9.042969 8.320312-22.957031 0-32 8.320312-9.042969 8.320312-22.957031 0-32 8.320312-9.042969 8.320312-22.957031 0-32 8.320312-9.042969 8.320312-22.957031 0-32 8.320312-9.042969 8.320312-22.957031 0-32 8.320312-9.042969 8.320312-22.957031 0-32 8.320312-9.042969 8.320312-22.957031 0-32 8.320312-9.042969 8.320312-22.957031 0-32 6.390625-7.007812 8.03125-17.132812 4.183593-25.800781-3.847656-8.667969-12.460937-14.2421878-21.945312-14.199219h-48c-9.484375-.0429688-18.097656 5.53125-21.945312 14.199219-3.847657 8.667969-2.207032 18.792969 4.183593 25.800781-8.320312 9.042969-8.320312 22.957031 0 32-8.320312 9.042969-8.320312 22.957031 0 32-8.320312 9.042969-8.320312 22.957031 0 32-8.320312 9.042969-8.320312 22.957031 0 32-8.320312 9.042969-8.320312 22.957031 0 32-8.320312 9.042969-8.320312 22.957031 0 32-8.320312 9.042969-8.320312 22.957031 0 32-8.320312 9.042969-8.320312 22.957031 0 32-6.390625 7.007812-8.03125 17.132812-4.183593 25.800781 3.847656 8.667969 12.460937 14.242188 21.945312 14.199219zm48-16h-48c-4.417969 0-8-3.582031-8-8s3.582031-8 8-8h48c4.417969 0 8 3.582031 8 8s-3.582031 8-8 8zm-56-40c0-4.417969 3.582031-8 8-8h48c4.417969 0 8 3.582031 8 8s-3.582031 8-8 8h-48c-4.417969 0-8-3.582031-8-8zm0-32c0-4.417969 3.582031-8 8-8h48c4.417969 0 8 3.582031 8 8s-3.582031 8-8 8h-48c-4.417969 0-8-3.582031-8-8zm0-32c0-4.417969 3.582031-8 8-8h48c4.417969 0 8 3.582031 8 8s-3.582031 8-8 8h-48c-4.417969 0-8-3.582031-8-8zm0-32c0-4.417969 3.582031-8 8-8h48c4.417969 0 8 3.582031 8 8s-3.582031 8-8 8h-48c-4.417969 0-8-3.582031-8-8zm0-32c0-4.417969 3.582031-8 8-8h48c4.417969 0 8 3.582031 8 8s-3.582031 8-8 8h-48c-4.417969 0-8-3.582031-8-8zm0-32c0-4.417969 3.582031-8 8-8h48c4.417969 0 8 3.582031 8 8s-3.582031 8-8 8h-48c-4.417969 0-8-3.582031-8-8zm0-32c0-4.417969 3.582031-8 8-8h48c4.417969 0 8 3.582031 8 8s-3.582031 8-8 8h-48c-4.417969 0-8-3.582031-8-8zm0-32c0-4.417969 3.582031-8 8-8h48c4.417969 0 8 3.582031 8 8s-3.582031 8-8 8h-48c-4.417969 0-8-3.582031-8-8zm8-40h48c4.417969 0 8 3.582031 8 8s-3.582031 8-8 8h-48c-4.417969 0-8-3.582031-8-8s3.582031-8 8-8zm0 0" fill="url(#f)"/></svg>