<svg height="480pt" viewBox="0 -32 480 480" width="480pt" xmlns="http://www.w3.org/2000/svg"><path d="m472 0h-464c-4.417969 0-8 3.582031-8 8v304c0 4.417969 3.582031 8 8 8h144v32h-32c-3.03125 0-5.804688 1.710938-7.160156 4.425781l-24 48c-1.238282 2.480469-1.105469 5.425781.351562 7.78125 1.460938 2.359375 4.035156 3.792969 6.808594 3.792969h280c2.78125.015625 5.367188-1.414062 6.835938-3.773438 1.46875-2.363281 1.605468-5.316406.363281-7.800781l-24-48c-1.359375-2.726562-4.152344-4.441406-7.199219-4.425781h-32v-32h152c4.417969 0 8-3.582031 8-8v-304c0-4.417969-3.582031-8-8-8zm-192 320v32h-88v-32zm-104 56h-8v-56h8zm171.054688-8 16 32h-254.109376l16-32h27.054688v16c0 4.417969 3.582031 8 8 8h24c4.417969 0 8-3.582031 8-8v-16h88v16c0 4.417969 3.582031 8 8 8h24c4.417969 0 8-3.582031 8-8v-16zm-43.054688 8h-8v-56h8zm160-72h-448v-288h448zm0 0"/><path d="m32 296h416c4.417969 0 8-3.582031 8-8v-256c0-4.417969-3.582031-8-8-8h-416c-4.417969 0-8 3.582031-8 8v256c0 4.417969 3.582031 8 8 8zm8-256h400v240h-400zm0 0"/><path d="m224 184h-8v-56c0-.191406-.097656-.351562-.113281-.542969-.046875-.542969-.152344-1.082031-.320313-1.601562-.117187-.476563-.28125-.945313-.488281-1.390625-.226563-.429688-.492187-.839844-.796875-1.21875-.324219-.445313-.691406-.859375-1.097656-1.230469-.144532-.121094-.214844-.296875-.367188-.40625-.257812-.144531-.527344-.273437-.800781-.386719-.472656-.292968-.976563-.53125-1.503906-.71875-.5-.15625-1.015625-.257812-1.535157-.304687-.320312-.085938-.648437-.152344-.976562-.199219-.199219 0-.367188.097656-.558594.113281-1.03125.125-2.039062.394531-2.992187.796875-.421875.230469-.816407.496094-1.183594.800782-.457031.328124-.878906.703124-1.257813 1.121093-.121093.144531-.296874.214844-.40625.359375l-48 64c-.144531.261719-.273437.527344-.386718.800782-.292969.46875-.53125.972656-.710938 1.496093-.164062.519531-.269531 1.054688-.320312 1.601563-.082032.296875-.140625.601562-.183594.910156 0 .191406.097656.351562.113281.542969.046875.542969.152344 1.082031.320313 1.601562.117187.476563.28125.945313.488281 1.390625.226563.429688.492187.839844.796875 1.21875.324219.445313.691406.859375 1.097656 1.230469.144532.121094.214844.296875.367188.40625.34375.214844.703125.402344 1.074218.5625.292969.171875.59375.328125.902344.472656.902344.359375 1.867188.554688 2.839844.574219h40v8c0 4.417969 3.582031 8 8 8s8-3.582031 8-8v-8h8c4.417969 0 8-3.582031 8-8s-3.582031-8-8-8zm-48 0 24-32v32zm0 0"/><path d="m267.855469 167.464844 33.800781-33.808594c3.03125-3.140625 2.988281-8.128906-.097656-11.214844-3.085938-3.085937-8.074219-3.128906-11.214844-.097656l-26.34375 26.34375v-20.6875c0-4.417969-3.582031-8-8-8s-8 3.582031-8 8v80c0 4.417969 3.582031 8 8 8s8-3.582031 8-8v-22.921875l34.878906 29.074219c3.398438 2.828125 8.445313 2.367187 11.273438-1.03125 2.828125-3.398438 2.367187-8.445313-1.03125-11.273438zm0 0"/></svg>