<svg height="480pt" viewBox="0 0 480 480" width="480pt" xmlns="http://www.w3.org/2000/svg"><path d="m232.089844 431.847656c-2.683594.097656-5.378906.152344-8.089844.152344-114.875 0-208-93.125-208-208s93.125-208 208-208 208 93.125 208 208c0 4.417969 3.582031 8 8 8s8-3.582031 8-8c0-123.710938-100.289062-224-224-224s-224 100.289062-224 224 100.289062 224 224 224c2.902344 0 5.800781-.054688 8.671875-.167969 4.414063-.160156 7.863281-3.867187 7.703125-8.28125-.015625-2.140625-.914062-4.179687-2.484375-5.636719-1.566406-1.457031-3.667969-2.203124-5.800781-2.066406zm0 0"/><path d="m49.496094 246.960938c-.574219-4.382813-4.59375-7.472657-8.976563-6.898438-4.382812.574219-7.46875 4.59375-6.894531 8.976562 11.363281 86.003907 78.941406 153.730469 164.917969 165.28125 4.324219.476563 8.238281-2.585937 8.8125-6.894531.570312-4.3125-2.402344-8.292969-6.699219-8.960937-78.8125-10.585938-140.753906-72.667969-151.160156-151.503906zm0 0"/><path d="m398.566406 201.496094c.511719 3.988281 3.90625 6.980468 7.929688 6.984375.34375-.003907.683594-.023438 1.023437-.066407 4.382813-.558593 7.480469-4.566406 6.921875-8.949218-11.136718-86.542969-79.242187-154.683594-165.777344-165.863282-4.386718-.566406-8.398437 2.527344-8.964843 6.914063-.566407 4.386719 2.53125 8.398437 6.917969 8.964844 79.316406 10.234375 141.746093 72.691406 151.949218 152.015625zm0 0"/><path d="m304 224c0-44.183594-35.816406-80-80-80s-80 35.816406-80 80 35.816406 80 80 80c44.164062-.046875 79.953125-35.835938 80-80zm-144 0c0-35.347656 28.652344-64 64-64s64 28.652344 64 64-28.652344 64-64 64c-35.328125-.039062-63.960938-28.671875-64-64zm0 0"/><path d="m272 224c0-26.507812-21.492188-48-48-48s-48 21.492188-48 48 21.492188 48 48 48c26.5-.027344 47.972656-21.5 48-48zm-80 0c0-17.671875 14.328125-32 32-32s32 14.328125 32 32-14.328125 32-32 32-32-14.328125-32-32zm0 0"/><path d="m477 241.761719c-1.886719-1.53125-4.363281-2.117188-6.734375-1.601563l-144 32c-3.671875.816406-6.28125 4.078125-6.265625 7.839844v128.207031c-6.882812-5.292969-15.316406-8.175781-24-8.207031-22.089844 0-40 17.910156-40 40s17.910156 40 40 40 40-17.910156 40-40v-105.601562l128-28.4375v78.230468c-6.886719-5.289062-15.316406-8.167968-24-8.191406-22.089844 0-40 17.910156-40 40s17.910156 40 40 40 40-17.910156 40-40v-168c0-2.425781-1.105469-4.722656-3-6.238281zm-181 222.238281c-13.253906 0-24-10.746094-24-24s10.746094-24 24-24 24 10.746094 24 24-10.746094 24-24 24zm40-177.601562 128-28.4375v31.640624l-128 28.421876zm104 153.601562c-13.253906 0-24-10.746094-24-24s10.746094-24 24-24 24 10.746094 24 24-10.746094 24-24 24zm0 0"/></svg>