<svg height="480pt" viewBox="0 0 480.16049 480" width="480pt" xmlns="http://www.w3.org/2000/svg"><path d="m480.160156 200.082031c-.097656-42.703125-30.757812-79.210937-72.800781-86.6875 3.378906-20.109375-4.441406-40.464843-20.414063-53.140625-15.96875-12.675781-37.570312-15.667968-56.386718-7.8125-18.640625-32.324218-53.085938-52.273437-90.398438-52.3593748-50.640625-.2148432-94 36.2382808-102.496094 86.1601568-7.886718-4.0625-16.632812-6.175782-25.503906-6.160157-30.910156.039063-55.960937 25.085938-56 56-.011718 3.214844.253906 6.429688.800782 9.597657-34.386719 7.347656-58.4375 38.449218-56.8906255 73.578124 1.5429685 35.125 28.2343755 64 63.1289065 68.296876 2.972656.355468 5.964843.53125 8.960937.527343h11.199219c-12.957031 63.613281 13.8125 128.753907 67.753906 164.878907 53.945313 36.125 124.371094 36.070312 178.257813-.136719 53.890625-36.207031 80.558594-101.386719 67.5-164.984375 46.660156-2.5 83.230468-41.03125 83.289062-87.757813zm-240 264c-79.527344 0-144-64.472656-144-144 0-79.53125 64.472656-144 144-144 79.53125 0 144 64.46875 144 144-.09375 79.488281-64.507812 143.90625-144 144zm152.609375-192c-20.976562-66.632812-82.761719-111.957031-152.617187-111.957031-69.855469 0-131.640625 45.324219-152.617188 111.957031h-15.375c-2.34375.003907-4.6875-.136719-7.015625-.417969-28.449219-3.613281-49.570312-28.140624-48.925781-56.816406.648438-28.671875 22.851562-52.222656 51.4375-54.550781 2.515625-.191406 4.792969-1.5625 6.144531-3.691406 1.351563-2.132813 1.617188-4.773438.71875-7.132813-1.59375-4.28125-2.394531-8.820312-2.359375-13.390625.027344-22.082031 17.917969-39.972656 40-40 9.871094-.03125 19.390625 3.644531 26.679688 10.296875 2.300781 2.101563 5.609375 2.675782 8.484375 1.472656 2.875-1.199218 4.789062-3.960937 4.910156-7.074218 1.574219-47.367188 40.53125-84.894532 87.925781-84.695313 34.085938.089844 65.09375 19.742188 79.726563 50.527344.976562 2.066406 2.789062 3.617187 4.980469 4.257813 2.191406.644531 4.554687.320312 6.492187-.890626 6.246094-3.875 13.453125-5.917968 20.800781-5.894531 22.082032.027344 39.972656 17.917969 40 40 .015625 4.570313-.765625 9.113281-2.3125 13.414063-.863281 2.367187-.5625 5.003906.8125 7.113281 1.375 2.113281 3.667969 3.453125 6.179688 3.617187 38.71875 2.4375 68.539062 35.113282 67.441406 73.894532-1.097656 38.777344-32.71875 69.714844-71.511719 69.960937zm0 0"/><path d="m301.96875 216.386719-112 32c-3.4375.976562-5.808594 4.121093-5.808594 7.695312v108.445313c-4.84375-2.878906-10.367187-4.414063-16-4.445313-17.671875 0-32 14.324219-32 32 0 17.671875 14.328125 32 32 32s32-14.328125 32-32v-97.960937l96-27.433594v65.839844c-4.84375-2.878906-10.367187-4.414063-16-4.445313-17.671875 0-32 14.324219-32 32 0 17.671875 14.328125 32 32 32s32-14.328125 32-32v-136c0-2.511719-1.175781-4.875-3.179687-6.386719-2.003907-1.511718-4.597657-1.996093-7.011719-1.308593zm-133.808594 191.695312c-8.835937 0-16-7.164062-16-16 0-8.835937 7.164063-16 16-16 8.835938 0 16 7.164063 16 16 0 8.835938-7.164062 16-16 16zm32-145.96875 96-27.425781v15.363281l-96 27.421875zm80 113.96875c-8.835937 0-16-7.164062-16-16 0-8.835937 7.164063-16 16-16 8.835938 0 16 7.164063 16 16 0 8.835938-7.164062 16-16 16zm0 0"/></svg>