<svg height="480pt" viewBox="0 0 480 480" width="480pt" xmlns="http://www.w3.org/2000/svg"><path d="m456 0h-432c-13.253906 0-24 10.746094-24 24v336c0 13.253906 10.746094 24 24 24h165.753906l-21.515625 86.054688c-.597656 2.390624-.0625 4.925781 1.453125 6.867187 1.519532 1.941406 3.84375 3.078125 6.308594 3.078125h128c2.464844 0 4.789062-1.136719 6.308594-3.078125 1.515625-1.941406 2.050781-4.476563 1.453125-6.867187l-21.515625-86.054688h165.753906c13.253906 0 24-10.746094 24-24v-336c0-13.253906-10.746094-24-24-24zm-440 24c0-4.417969 3.582031-8 8-8h432c4.417969 0 8 3.582031 8 8v280h-448zm277.753906 440h-107.507812l20-80h67.507812zm170.246094-104c0 4.417969-3.582031 8-8 8h-432c-4.417969 0-8-3.582031-8-8v-40h448zm0 0"/><path d="m264 344c0-13.253906-10.746094-24-24-24s-24 10.746094-24 24 10.746094 24 24 24 24-10.746094 24-24zm-24 8c-4.417969 0-8-3.582031-8-8s3.582031-8 8-8 8 3.582031 8 8-3.582031 8-8 8zm0 0"/><path d="m309.800781 56.3125-112 32c-3.433593.980469-5.800781 4.117188-5.800781 7.6875v108.449219c-4.84375-2.878907-10.367188-4.417969-16-4.449219-17.671875 0-32 14.328125-32 32s14.328125 32 32 32 32-14.328125 32-32v-97.96875l96-27.421875v65.839844c-4.84375-2.878907-10.367188-4.417969-16-4.449219-17.671875 0-32 14.328125-32 32s14.328125 32 32 32 32-14.328125 32-32v-136c0-2.511719-1.179688-4.875-3.183594-6.386719-2.003906-1.507812-4.601562-1.992187-7.015625-1.300781zm-133.800781 191.6875c-8.835938 0-16-7.164062-16-16s7.164062-16 16-16 16 7.164062 16 16-7.164062 16-16 16zm32-145.96875 96-27.421875v15.359375l-96 27.421875zm80 113.96875c-8.835938 0-16-7.164062-16-16s7.164062-16 16-16 16 7.164062 16 16-7.164062 16-16 16zm0 0"/></svg>