<svg height="480pt" viewBox="-88 0 480 480" width="480pt" xmlns="http://www.w3.org/2000/svg"><path d="m88 264c17.671875 0 32-14.328125 32-32v-97.96875l96-27.421875v65.839844c-4.84375-2.878907-10.367188-4.417969-16-4.449219-17.671875 0-32 14.328125-32 32s14.328125 32 32 32 32-14.328125 32-32v-136c0-2.507812-1.179688-4.871094-3.183594-6.382812-2-1.507813-4.597656-1.992188-7.007812-1.304688l-112 32c-3.4375.976562-5.804688 4.117188-5.808594 7.6875v108.449219c-4.84375-2.878907-10.367188-4.417969-16-4.449219-17.671875 0-32 14.328125-32 32s14.328125 32 32 32zm112-48c-8.835938 0-16-7.164062-16-16s7.164062-16 16-16 16 7.164062 16 16-7.164062 16-16 16zm-80-113.96875 96-27.421875v15.359375l-96 27.421875zm-32 113.96875c8.835938 0 16 7.164062 16 16s-7.164062 16-16 16-16-7.164062-16-16 7.164062-16 16-16zm0 0"/><path d="m264 0h-224c-22.082031.0273438-39.9726562 17.917969-40 40v400c.0273438 22.082031 17.917969 39.972656 40 40h224c22.082031-.027344 39.972656-17.917969 40-40v-400c-.027344-22.082031-17.917969-39.9726562-40-40zm24 440c0 13.253906-10.746094 24-24 24h-224c-13.253906 0-24-10.746094-24-24v-400c0-13.253906 10.746094-24 24-24h224c13.253906 0 24 10.746094 24 24zm0 0"/><path d="m272 24h-240c-4.417969 0-8 3.582031-8 8v248c0 4.417969 3.582031 8 8 8h240c4.417969 0 8-3.582031 8-8v-248c0-4.417969-3.582031-8-8-8zm-8 248h-224v-232h224zm0 0"/><path d="m152 296c-44.183594 0-80 35.816406-80 80s35.816406 80 80 80 80-35.816406 80-80c-.046875-44.164062-35.835938-79.953125-80-80zm0 144c-35.347656 0-64-28.652344-64-64s28.652344-64 64-64 64 28.652344 64 64c-.039062 35.328125-28.671875 63.960938-64 64zm0 0"/><path d="m152 328c-26.507812 0-48 21.492188-48 48s21.492188 48 48 48 48-21.492188 48-48c-.027344-26.5-21.5-47.972656-48-48zm0 80c-17.671875 0-32-14.328125-32-32s14.328125-32 32-32 32 14.328125 32 32-14.328125 32-32 32zm0 0"/></svg>