<svg height="480pt" viewBox="0 0 480 480" width="480pt" xmlns="http://www.w3.org/2000/svg"><path d="m472 0h-464c-4.417969 0-8 3.582031-8 8v464c0 4.417969 3.582031 8 8 8h464c4.417969 0 8-3.582031 8-8v-464c0-4.417969-3.582031-8-8-8zm-8 464h-448v-448h448zm0 0"/><path d="m440 368h-80c-4.417969 0-8 3.582031-8 8s3.582031 8 8 8h80c4.417969 0 8-3.582031 8-8s-3.582031-8-8-8zm0 0"/><path d="m440 392h-112c-4.417969 0-8 3.582031-8 8s3.582031 8 8 8h112c4.417969 0 8-3.582031 8-8s-3.582031-8-8-8zm0 0"/><path d="m200 432h-160c-4.417969 0-8 3.582031-8 8s3.582031 8 8 8h160c4.417969 0 8-3.582031 8-8s-3.582031-8-8-8zm0 0"/><path d="m24.550781 354.742188c.089844.234374.175781.449218.28125.671874.105469.226563.136719.402344.238281.585938.351563.582031.773438 1.121094 1.257813 1.601562.65625.628907 1.417969 1.140626 2.246094 1.511719.207031.097657.417969.1875.632812.261719.886719.378906 1.832031.589844 2.792969.625h416c.949219-.019531 1.886719-.207031 2.769531-.558594.21875-.082031.433594-.171875.644531-.273437.796876-.363281 1.527344-.855469 2.160157-1.457031l.097656-.070313c.507813-.515625.949219-1.097656 1.304687-1.730469.09375-.167968.128907-.351562.207032-.519531.101562-.21875.1875-.441406.265625-.671875.320312-.800781.507812-1.652344.550781-2.519531 0-.070313.039062-.128907.039062-.199219v-320c0-4.417969-3.582031-8-8-8h-416.039062c-4.417969 0-8 3.582031-8 8v320c.019531.941406.207031 1.871094.550781 2.742188zm21.296875-10.742188 106.152344-184 106.152344 184zm240.417969 0 73.734375-120.65625 73.734375 120.65625zm153.734375-304v283.558594l-73.167969-119.726563c-1.554687-2.238281-4.105469-3.570312-6.832031-3.570312s-5.277344 1.332031-6.832031 3.570312l-80.96875 132.503907-113.269531-196.335938c-1.542969-2.320312-4.144532-3.714844-6.929688-3.714844s-5.386719 1.394532-6.929688 3.714844l-105.070312 182.128906v-282.128906zm0 0"/><path d="m272 176c22.089844 0 40-17.910156 40-40s-17.910156-40-40-40-40 17.910156-40 40c.027344 22.082031 17.917969 39.972656 40 40zm0-64c13.253906 0 24 10.746094 24 24s-10.746094 24-24 24-24-10.746094-24-24 10.746094-24 24-24zm0 0"/></svg>