<svg height="480pt" viewBox="0 0 480 480" width="480pt" xmlns="http://www.w3.org/2000/svg"><path d="m240 0c-132.546875 0-240 107.453125-240 240s107.453125 240 240 240 240-107.453125 240-240c-.148438-132.484375-107.515625-239.851562-240-240zm0 464c-123.710938 0-224-100.289062-224-224s100.289062-224 224-224 224 100.289062 224 224c-.140625 123.652344-100.347656 223.859375-224 224zm0 0"/><path d="m372.199219 169.191406c-2.355469-1.453125-5.296875-1.589844-7.773438-.351562l-124.425781 62.214844v-55.054688c0-2.773438-1.433594-5.347656-3.792969-6.808594-2.355469-1.457031-5.300781-1.589844-7.78125-.351562l-128 64c-2.71875 1.351562-4.433593 4.125-4.433593 7.160156s1.714843 5.808594 4.433593 7.160156l128 64c2.480469 1.238282 5.425781 1.105469 7.78125-.351562 2.359375-1.460938 3.792969-4.035156 3.792969-6.808594v-55.054688l124.425781 62.253907c2.484375 1.242187 5.4375 1.105469 7.800781-.363281 2.359376-1.46875 3.789063-4.054688 3.773438-6.835938v-128c0-2.773438-1.4375-5.351562-3.800781-6.808594zm-148.199219 121.863282-102.113281-51.054688 102.113281-51.054688zm136 0-102.113281-51.054688 102.113281-51.054688zm0 0"/></svg>