<svg height="480pt" viewBox="0 0 480 480" width="480pt" xmlns="http://www.w3.org/2000/svg"><path d="m360 0h-240c-13.253906 0-24 10.746094-24 24v432c0 13.253906 10.746094 24 24 24h240c13.253906 0 24-10.746094 24-24v-432c0-13.253906-10.746094-24-24-24zm-240 16h240c4.417969 0 8 3.582031 8 8v8h-256v-8c0-4.417969 3.582031-8 8-8zm248 400h-256v-368h256zm-8 48h-240c-4.417969 0-8-3.582031-8-8v-24h256v24c0 4.417969-3.582031 8-8 8zm0 0"/><path d="m408 112c-4.417969 0-8 3.582031-8 8v240c0 4.417969 3.582031 8 8 8s8-3.582031 8-8v-240c0-4.417969-3.582031-8-8-8zm0 0"/><path d="m440 152c-4.417969 0-8 3.582031-8 8v160c0 4.417969 3.582031 8 8 8s8-3.582031 8-8v-160c0-4.417969-3.582031-8-8-8zm0 0"/><path d="m472 192c-4.417969 0-8 3.582031-8 8v80c0 4.417969 3.582031 8 8 8s8-3.582031 8-8v-80c0-4.417969-3.582031-8-8-8zm0 0"/><path d="m72 112c-4.417969 0-8 3.582031-8 8v240c0 4.417969 3.582031 8 8 8s8-3.582031 8-8v-240c0-4.417969-3.582031-8-8-8zm0 0"/><path d="m40 152c-4.417969 0-8 3.582031-8 8v160c0 4.417969 3.582031 8 8 8s8-3.582031 8-8v-160c0-4.417969-3.582031-8-8-8zm0 0"/><path d="m8 192c-4.417969 0-8 3.582031-8 8v80c0 4.417969 3.582031 8 8 8s8-3.582031 8-8v-80c0-4.417969-3.582031-8-8-8zm0 0"/><path d="m248 440h-16c-4.417969 0-8 3.582031-8 8s3.582031 8 8 8h16c4.417969 0 8-3.582031 8-8s-3.582031-8-8-8zm0 0"/></svg>