<svg height="480pt" viewBox="0 0 480 480" width="480pt" xmlns="http://www.w3.org/2000/svg"><path d="m240 0c-132.546875 0-240 107.453125-240 240s107.453125 240 240 240 240-107.453125 240-240c-.148438-132.484375-107.515625-239.851562-240-240zm0 464c-123.710938 0-224-100.289062-224-224s100.289062-224 224-224 224 100.289062 224 224c-.140625 123.652344-100.347656 223.859375-224 224zm0 0"/><path d="m368 304h-24c-4.417969 0-8 3.582031-8 8v32h-192v-32c0-4.417969-3.582031-8-8-8h-24c-4.417969 0-8 3.582031-8 8v64c0 4.417969 3.582031 8 8 8h256c4.417969 0 8-3.582031 8-8v-64c0-4.417969-3.582031-8-8-8zm-8 64h-240v-48h8v32c0 4.417969 3.582031 8 8 8h208c4.417969 0 8-3.582031 8-8v-32h8zm0 0"/><path d="m176 168h24v152c0 4.417969 3.582031 8 8 8h64c4.417969 0 8-3.582031 8-8v-152h24c3.078125 0 5.878906-1.761719 7.214844-4.535156 1.332031-2.773438.957031-6.0625-.96875-8.464844l-64-80c-1.570313-1.8125-3.847656-2.851562-6.246094-2.851562s-4.675781 1.039062-6.246094 2.851562l-64 80c-1.925781 2.402344-2.300781 5.691406-.96875 8.464844 1.335938 2.773437 4.136719 4.535156 7.214844 4.535156zm64-75.199219 47.351562 59.199219h-15.351562c-4.417969 0-8 3.582031-8 8v152h-48v-152c0-4.417969-3.582031-8-8-8h-15.351562zm0 0"/></svg>