<svg height="480pt" viewBox="0 -36 480.11514 480" width="480pt" xmlns="http://www.w3.org/2000/svg"><path d="m407.253906 113.371094c3.378906-20.109375-4.441406-40.464844-20.414062-53.140625s-37.570313-15.667969-56.386719-7.8125c-18.640625-32.324219-53.085937-52.273438-90.398437-52.3593752-50.640626-.2148438-94 36.2382812-102.496094 86.1601562-7.886719-4.0625-16.632813-6.175781-25.503906-6.160156-30.914063.035156-55.964844 25.085937-56 56-.011719 3.21875.253906 6.429687.800781 9.601562-34.328125 7.386719-58.320313 38.457032-56.7851565 73.535156 1.5351565 35.082032 28.1484375 63.9375 62.9921875 68.296876 2.992188.398437 72.992188.566406 72.992188.566406v112c0 4.417968 3.582031 8 8 8h192c4.417968 0 8-3.582032 8-8v-112h48c45.667968.03125 83.769531-34.875 87.730468-80.371094 3.957032-45.496094-27.542968-86.460938-72.53125-94.316406zm-111.199218 54.6875h32v32h-32zm32 80h-32v-32h32zm-32 64h32v32h-32zm0-16v-32h32v15.34375c0 .222656-.136719.425781-.136719.65625 0 .230468.121093.433594.136719.65625v15.34375zm-16-24h-80v-104h80zm-96-24h-32v-32h32zm-32 16h32v32h-32zm0 48h32v32h-32zm32-112h-32v-32h32zm-32 160h32v32h-32zm48-72h80v104h-80zm128 104h-32v-32h32zm64-120h-48v-112c0-4.417969-3.582032-8-8-8h-192c-4.417969 0-8 3.582031-8 8v112s-68.710938-.136719-71.015626-.417969c-28.453124-3.613281-49.574218-28.140625-48.925781-56.8125.648438-28.675781 22.851563-52.222656 51.4375-54.554687 2.511719-.195313 4.785157-1.5625 6.132813-3.691407 1.347656-2.128906 1.617187-4.769531.722656-7.125-1.59375-4.285156-2.390625-8.824219-2.351562-13.398437.027343-22.082032 17.917968-39.972656 40-40 9.867187-.03125 19.382812 3.644531 26.671874 10.296875 2.296876 2.105469 5.613282 2.683593 8.488282 1.484375 2.878906-1.203125 4.796875-3.96875 4.910156-7.085938 1.570312-47.371094 40.535156-84.898437 87.929688-84.695312 34.085937.089844 65.09375 19.742187 79.726562 50.527344.972656 2.070312 2.785156 3.625 4.976562 4.273437 2.195313.625 4.554688.296875 6.496094-.90625 6.242188-3.875 13.453125-5.917969 20.800782-5.894531 22.078124.027344 39.972656 17.917968 40 40 .023437 4.574218-.761719 9.117187-2.320313 13.414062-.863281 2.371094-.5625 5.007813.8125 7.117188 1.378906 2.113281 3.671875 3.449218 6.1875 3.613281 38.824219 2.457031 68.675781 35.3125 67.410156 74.195313-1.261719 38.882812-33.1875 69.730468-72.089843 69.660156zm0 0"/></svg>