<svg height="480pt" viewBox="-48 0 480 480" width="480pt" xmlns="http://www.w3.org/2000/svg"><path d="m376 0h-368c-4.417969 0-8 3.582031-8 8v464c0 4.417969 3.582031 8 8 8h368c4.417969 0 8-3.582031 8-8v-464c0-4.417969-3.582031-8-8-8zm-8 136h-48v-48h48zm0 64h-48v-48h48zm0 64h-48v-48h48zm0 64h-48v-48h48zm-48 16h48v48h-48zm48-272h-48v-56h48zm-352 208h48v48h-48zm0-64h48v48h-48zm0-64h48v48h-48zm48-16h-48v-48h48zm-48 208h48v48h-48zm0-328h48v56h-48zm0 392h48v56h-48zm64-392h224v448h-224zm288 448h-48v-56h48zm0 0"/><path d="m192 144c-53.019531 0-96 42.980469-96 96s42.980469 96 96 96 96-42.980469 96-96c-.058594-52.996094-43.003906-95.941406-96-96zm0 176c-44.183594 0-80-35.816406-80-80s35.816406-80 80-80 80 35.816406 80 80c-.046875 44.164062-35.835938 79.953125-80 80zm0 0"/><path d="m243.574219 232.839844-80-40c-2.480469-1.238282-5.425781-1.105469-7.78125.351562-2.359375 1.460938-3.792969 4.035156-3.792969 6.808594v80c-.015625 2.78125 1.414062 5.367188 3.773438 6.835938 2.363281 1.46875 5.316406 1.605468 7.800781.363281l80-40c2.71875-1.351563 4.433593-4.125 4.433593-7.160157 0-3.03125-1.714843-5.804687-4.433593-7.160156zm-75.574219 34.214844v-54.109376l54.113281 27.054688zm0 0"/></svg>